<svg xmlns="http://www.w3.org/2000/svg" xmlns:xlink="http://www.w3.org/1999/xlink" version="1.1" width="1000" height="1000" viewBox="0 0 1000 1000" xml:space="preserve">
<desc>Created with Fabric.js 3.5.0, https://www.svgart.org/among-us-svg/</desc>
<style type="text/css">
	.primary{fill: rgb(104,252,3)}
  .secondary{fill: rgb(46,233,4)} 
</style>

<g transform="matrix(8.1899 0 0 8.1899 500.0001 483.69)" id="Layer_1">
<path style="stroke: none; stroke-width: 1; stroke-dasharray: none; stroke-linecap: butt; stroke-dashoffset: 0; stroke-linejoin: miter; stroke-miterlimit: 4; is-custom-font: none; font-file-url: none; fill: rgb(10,11,13); fill-rule: nonzero; opacity: 1;" transform=" translate(-361.8475, -458.6474)" d="M 338.28 503.36 c -0.28 -3.42 -0.53 -6.84 -0.85 -10.25 c -0.18 -1.92 -0.86 -2.58 -2.79 -2.44 c -6.73 0.46 -11.52 -3.89 -12.63 -10.51 c -1.17 -6.97 -1.02 -13.99 -0.68 -21.01 c 0.2 -4.22 0.28 -8.45 0.5 -12.68 c 0.09 -1.66 0.24 -3.35 0.67 -4.95 c 0.94 -3.53 3.31 -5.75 6.85 -6.65 c 1.93 -0.49 3.88 -0.93 5.83 -1.31 c 1.63 -0.32 2.43 -1.28 2.73 -2.89 c 0.53 -2.82 1.06 -5.64 1.83 -8.4 c 1.06 -3.81 2.93 -7.24 5.53 -10.24 c 3.13 -3.62 6.99 -5.68 11.91 -5.65 c 3.75 0.02 7.5 -0.25 11.25 -0.22 c 5.11 0.03 9.94 1.33 14.48 3.65 c 4.87 2.49 8.48 6.2 10.68 11.21 c 0.75 1.72 1.76 3.12 3.19 4.38 c 3.84 3.4 5.7 7.69 5.82 12.88 c 0.1 4.29 -0.56 8.22 -3.14 11.76 c -1 1.37 -0.99 3.07 -0.59 4.62 c 1.8 6.96 1.26 13.94 0.21 20.91 c -1.05 6.94 -2.07 13.88 -3.3 20.79 c -0.37 2.07 -1.4 4.02 -2.13 6.02 c -0.44 0.32 -1.02 0.55 -1.3 0.97 c -1.49 2.21 -3.62 2.93 -6.16 2.9 c -2.31 -0.03 -4.62 -0.06 -6.93 0.01 c -2.71 0.09 -4.75 -0.93 -6.2 -3.25 c -0.57 -0.92 -1.41 -1.68 -2.12 -2.51 c -0.34 -2.36 -0.7 -4.71 -1 -7.07 c -0.12 -0.98 -0.46 -1.77 -1.55 -1.75 c -1.23 0.02 -1.21 1 -1.24 1.91 c -0.06 2.31 -0.16 4.62 -0.24 6.93 c -1.4 0.77 -1.18 2.32 -1.72 3.51 c -0.48 1.06 -0.89 2.24 -1.67 3.05 c -2.16 2.25 -4.99 3.53 -8.02 3.87 c -4.22 0.48 -8.41 0.1 -12.32 -1.88 c -1.91 -0.97 -3.41 -2.25 -3.97 -4.44 C 339.1 504.16 338.6 503.79 338.28 503.36 z M 396.86 435.8 c -0.68 -2.42 -2.13 -4.36 -4.27 -5.56 c -2.14 -1.2 -4.4 -2.29 -6.74 -2.98 c -7.45 -2.21 -14.69 -0.44 -21.89 1.49 c -0.12 0.03 -0.2 0.23 -0.3 0.35 c -0.21 0.09 -0.51 0.12 -0.63 0.28 c -2.91 3.81 -3.76 11.1 0.44 15.13 c 3.39 3.25 7.31 4.92 11.95 5.23 c 6.09 0.42 11.63 -1.44 17.03 -3.91 c 2.26 -1.03 3.89 -2.77 4.56 -5.23 c 0.26 -0.96 0.67 -2 -0.29 -2.86 c 0.09 -0.46 0.18 -0.92 0.27 -1.39 C 396.95 436.17 396.91 435.98 396.86 435.8 z M 328.58 447.71 c -0.17 0.93 -0.42 1.85 -0.48 2.78 c -0.2 3.18 -0.07 6.4 -0.54 9.54 c -0.91 6.09 0.01 12.11 0.43 18.14 c 0.24 3.39 2.63 5.68 5.95 6.27 c 1.66 0.3 2.86 -0.42 3.22 -2.05 c 0.17 -0.77 0.18 -1.59 0.14 -2.38 c -0.09 -1.83 -0.36 -3.66 -0.38 -5.49 c -0.1 -8.29 -0.13 -16.59 -0.2 -24.88 c -0.01 -0.63 -0.13 -1.25 -0.2 -1.88 c 0.24 -1.87 0.47 -3.75 0.74 -5.62 c 0.17 -1.22 -0.48 -1.71 -1.55 -1.93 c -2.85 -0.59 -5.64 0.93 -6.54 3.77 C 328.77 445.17 328.75 446.47 328.58 447.71 z M 392.56 456.4 c -0.2 -1.4 0.66 -3.03 -0.8 -4.21 c -1.41 0.47 -2.73 1.05 -4.11 1.33 c -3.43 0.71 -6.89 1.31 -10.35 1.89 c -4.03 0.68 -7.93 0.13 -11.74 -1.33 c -4.66 -1.78 -7.73 -5 -9.03 -9.8 c -1.22 -4.51 -1.39 -9.11 -0.98 -13.75 c 0.34 -3.83 2.6 -6.21 5.96 -7.33 c 2.84 -0.94 5.89 -1.46 8.89 -1.69 c 3.65 -0.28 7.34 -0.05 11.01 -0.08 c 0.97 -0.01 2.03 0.24 3.28 -0.79 c -0.58 -0.39 -1.17 -0.6 -1.47 -1.02 c -2.96 -4.25 -7.37 -6.08 -12.19 -6.76 c -3.85 -0.54 -7.8 -0.26 -11.7 -0.5 c -5.35 -0.34 -8.5 2.94 -11.39 6.69 c -0.17 0.21 -0.08 0.62 -0.12 0.93 c -3.87 7.14 -4.96 15.01 -5.26 22.88 c -0.4 10.36 -0.34 20.75 0 31.11 c 0.3 9.16 1.29 18.29 1.92 27.45 c 0.11 1.57 0.88 2.47 2.24 3.06 c 3.81 1.66 7.41 1.32 10.96 -0.85 c 1.83 -1.12 2.71 -2.56 2.63 -4.71 c -0.09 -2.47 -0.11 -4.95 -0.01 -7.42 c 0.06 -1.34 0.29 -2.7 0.69 -3.98 c 0.74 -2.38 1.84 -2.94 4.35 -2.65 c 5.71 0.65 11.41 1.5 17.18 0.72 c 0.54 -0.07 1.11 0.12 1.66 0.18 c 0.04 0.17 0.07 0.35 0.11 0.52 c -1.38 0.92 -2.73 1.88 -4.13 2.77 c -3.69 2.35 -5.01 6.72 -3.24 10.68 c 0.41 0.9 1.05 1.51 1.97 1.52 c 2.71 0.03 5.42 0.07 8.11 -0.18 c 1.75 -0.16 2.6 -1.27 2.38 -2.99 c -0.55 -4.3 0.26 -8.45 1.29 -12.54 c 2.14 -8.52 2.73 -17.16 2.31 -25.89 C 392.94 458.58 392.71 457.49 392.56 456.4 z" stroke-linecap="round"/>
</g>
<g transform="matrix(8.1899 0 0 8.1899 532.456 886.327)" id="Layer_1">
<path style="stroke: none; stroke-width: 1; stroke-dasharray: none; stroke-linecap: butt; stroke-dashoffset: 0; stroke-linejoin: miter; stroke-miterlimit: 4; is-custom-font: none; font-file-url: none; fill: rgb(22,32,32); fill-rule: nonzero; opacity: 1;" transform=" translate(-365.8104, -507.8101)" d="M 370.93 500.5 c 0.71 0.83 1.55 1.59 2.12 2.51 c 1.45 2.33 3.49 3.34 6.2 3.25 c 2.31 -0.08 4.62 -0.04 6.93 -0.01 c 2.54 0.04 4.67 -0.68 6.16 -2.9 c 0.29 -0.42 0.86 -0.65 1.3 -0.97 c 0.18 0.99 1.05 0.77 1.69 0.96 c 1.59 0.49 3.25 0.84 4.72 1.57 c 1.33 0.66 2.61 1.66 2.46 3.49 c -0.15 1.76 -1.37 2.74 -2.85 3.19 c -2.88 0.89 -5.79 1.84 -8.77 2.25 c -4.41 0.6 -8.88 0.97 -13.34 1.06 c -7.98 0.16 -15.99 0.44 -23.94 -0.08 c -6.33 -0.41 -12.59 -1.87 -18.86 -3 c -1.46 -0.26 -2.84 -1.03 -4.23 -1.61 c -0.88 -0.36 -1.39 -1.01 -1.42 -2.02 c -0.03 -1.12 0.53 -1.86 1.49 -2.22 c 2.01 -0.76 4.06 -1.42 6.09 -2.11 c 0.52 -0.18 1.06 -0.34 1.58 -0.51 c 0.32 0.42 0.81 0.8 0.93 1.27 c 0.56 2.19 2.06 3.47 3.97 4.44 c 3.9 1.98 8.1 2.36 12.32 1.88 c 3.02 -0.35 5.85 -1.62 8.02 -3.87 c 0.78 -0.81 1.19 -1.99 1.67 -3.05 c 0.54 -1.19 0.32 -2.74 1.72 -3.51 C 368.25 500.51 369.59 500.51 370.93 500.5 z" stroke-linecap="round"/>
</g>
<g transform="matrix(8.1899 0 0 8.1899 561.3879 370.5232)" id="Layer_1">
<path class="primary" style="stroke: none; stroke-width: 1; stroke-dasharray: none; stroke-linecap: butt; stroke-dashoffset: 0; stroke-linejoin: miter; stroke-miterlimit: 4; is-custom-font: none; font-file-url: none; fill-rule: nonzero; opacity: 1;" transform=" translate(-369.3431, -444.8296)" d="M 347.84 419.99 c 0.03 -0.32 -0.05 -0.72 0.12 -0.93 c 2.89 -3.75 6.04 -7.03 11.39 -6.69 c 3.9 0.25 7.85 -0.04 11.7 0.5 c 4.81 0.68 9.22 2.51 12.19 6.76 c 0.29 0.42 0.88 0.63 1.47 1.02 c -1.25 1.03 -2.31 0.78 -3.28 0.79 c -3.67 0.04 -7.36 -0.2 -11.01 0.08 c -3 0.23 -6.04 0.75 -8.89 1.69 c -3.37 1.11 -5.63 3.49 -5.96 7.33 c -0.41 4.64 -0.23 9.24 0.98 13.75 c 1.3 4.8 4.37 8.02 9.03 9.8 c 3.81 1.46 7.71 2.01 11.74 1.33 c 3.46 -0.58 6.91 -1.19 10.35 -1.89 c 1.38 -0.28 2.7 -0.87 4.11 -1.33 c 1.45 1.18 0.6 2.8 0.8 4.21 c -0.18 0.34 -0.49 0.67 -0.51 1.02 c -0.22 4.01 -1.38 7.8 -2.53 11.61 c -1.33 4.4 -4.36 6.69 -8.69 7.5 c -1.64 0.3 -3.29 0.57 -4.95 0.66 c -2.04 0.11 -4.12 0.2 -6.15 -0.03 c -3.46 -0.4 -6.9 -1.04 -10.35 -1.6 c -1.28 -0.21 -2.55 -0.54 -3.33 -1.66 c -1.53 -2.22 -3.34 -4.33 -4.38 -6.77 c -2.49 -5.88 -3.94 -12.07 -4.28 -18.49 c -0.1 -1.9 -0.38 -3.79 -0.58 -5.68 c -0.28 -2.68 -0.7 -5.36 -0.78 -8.04 c -0.12 -3.67 0.62 -7.26 1.54 -10.81 C 347.92 422.75 348.3 421.39 347.84 419.99 z" stroke-linecap="round"/>
</g>
<g transform="matrix(8.1899 0 0 8.1899 548.068 517.3434)" id="Layer_1">
<path class="secondary" style="stroke: none; stroke-width: 1; stroke-dasharray: none; stroke-linecap: butt; stroke-dashoffset: 0; stroke-linejoin: miter; stroke-miterlimit: 4; is-custom-font: none; font-file-url: none; fill-rule: nonzero; opacity: 1;" transform=" translate(-367.7167, -462.7566)" d="M 347.84 419.99 c 0.46 1.4 0.08 2.75 -0.26 4.1 c -0.92 3.55 -1.66 7.14 -1.54 10.81 c 0.09 2.69 0.51 5.36 0.78 8.04 c 0.2 1.89 0.47 3.78 0.58 5.68 c 0.35 6.42 1.79 12.61 4.28 18.49 c 1.03 2.44 2.85 4.55 4.38 6.77 c 0.78 1.13 2.05 1.46 3.33 1.66 c 3.45 0.56 6.88 1.2 10.35 1.6 c 2.02 0.23 4.1 0.14 6.15 0.03 c 1.66 -0.09 3.32 -0.35 4.95 -0.66 c 4.34 -0.81 7.37 -3.1 8.69 -7.5 c 1.15 -3.81 2.31 -7.6 2.53 -11.61 c 0.02 -0.35 0.33 -0.68 0.51 -1.02 c 0.15 1.09 0.38 2.18 0.43 3.27 c 0.42 8.73 -0.16 17.37 -2.31 25.89 c -1.03 4.1 -1.85 8.24 -1.29 12.54 c 0.22 1.72 -0.62 2.83 -2.38 2.99 c -2.69 0.25 -5.41 0.21 -8.11 0.18 c -0.92 -0.01 -1.56 -0.62 -1.97 -1.52 c -1.77 -3.95 -0.45 -8.32 3.24 -10.68 c 1.4 -0.89 2.75 -1.84 4.13 -2.77 c -0.04 -0.17 -0.07 -0.35 -0.11 -0.52 c -0.55 -0.07 -1.13 -0.25 -1.66 -0.18 c -5.77 0.78 -11.47 -0.08 -17.18 -0.72 c -2.51 -0.29 -3.61 0.27 -4.35 2.65 c -0.4 1.28 -0.64 2.64 -0.69 3.98 c -0.1 2.47 -0.08 4.95 0.01 7.42 c 0.08 2.15 -0.8 3.58 -2.63 4.71 c -3.54 2.18 -7.14 2.52 -10.96 0.85 c -1.37 -0.6 -2.13 -1.49 -2.24 -3.06 c -0.63 -9.15 -1.62 -18.29 -1.92 -27.45 c -0.34 -10.36 -0.39 -20.75 0 -31.11 C 342.88 435 343.97 427.13 347.84 419.99 z" stroke-linecap="round"/>
</g>
<g transform="matrix(8.1899 0 0 8.1899 257.4824 544.7933)" id="Layer_1">
<path class="secondary" style="stroke: none; stroke-width: 1; stroke-dasharray: none; stroke-linecap: butt; stroke-dashoffset: 0; stroke-linejoin: miter; stroke-miterlimit: 4; is-custom-font: none; font-file-url: none; fill-rule: nonzero; opacity: 1;" transform=" translate(-332.2357, -466.1083)" d="M 336.51 447.76 c 0.07 0.63 0.19 1.25 0.2 1.88 c 0.07 8.29 0.1 16.59 0.2 24.88 c 0.02 1.83 0.29 3.66 0.38 5.49 c 0.04 0.79 0.03 1.61 -0.14 2.38 c -0.36 1.63 -1.56 2.35 -3.22 2.05 c -3.31 -0.59 -5.71 -2.88 -5.95 -6.27 c -0.42 -6.03 -1.34 -12.04 -0.43 -18.14 c 0.47 -3.14 0.34 -6.36 0.54 -9.54 c 0.06 -0.93 0.32 -1.85 0.48 -2.78 c 0.5 0.17 1.02 0.49 1.51 0.47 C 332.23 448.1 334.37 447.91 336.51 447.76 z" stroke-linecap="round"/>
</g>
<g transform="matrix(8.1899 0 0 8.1899 640.1035 326.4528)" id="Layer_1">
<path style="stroke: none; stroke-width: 1; stroke-dasharray: none; stroke-linecap: butt; stroke-dashoffset: 0; stroke-linejoin: miter; stroke-miterlimit: 4; is-custom-font: none; font-file-url: none; fill: rgb(42,91,104); fill-rule: nonzero; opacity: 1;" transform=" translate(-378.9544, -439.4485)" d="M 396.72 437.74 c 0.97 0.86 0.56 1.9 0.29 2.86 c -0.67 2.46 -2.3 4.2 -4.56 5.23 c -5.4 2.47 -10.94 4.32 -17.03 3.91 c -4.64 -0.32 -8.55 -1.98 -11.95 -5.23 c -4.21 -4.03 -3.35 -11.32 -0.44 -15.13 c 0.12 -0.16 0.42 -0.19 0.63 -0.28 c 0.49 1.33 1.02 2.66 1.45 4.01 c 1.75 5.49 4.94 7.97 10.74 7.94 c 3.81 -0.02 7.63 -0.25 11.43 -0.59 C 390.57 440.16 393.96 439.99 396.72 437.74 z" stroke-linecap="round"/>
</g>
<g transform="matrix(8.1899 0 0 8.1899 651.2469 278.8216)" id="Layer_1">
<path style="stroke: none; stroke-width: 1; stroke-dasharray: none; stroke-linecap: butt; stroke-dashoffset: 0; stroke-linejoin: miter; stroke-miterlimit: 4; is-custom-font: none; font-file-url: none; fill: rgb(151,226,229); fill-rule: nonzero; opacity: 1;" transform=" translate(-380.315, -433.6327)" d="M 396.72 437.74 c -2.76 2.25 -6.15 2.42 -9.45 2.71 c -3.8 0.34 -7.62 0.57 -11.43 0.59 c -5.8 0.03 -8.99 -2.45 -10.74 -7.94 c -0.43 -1.35 -0.96 -2.67 -1.45 -4.01 c 0.1 -0.12 0.18 -0.31 0.3 -0.35 c 7.2 -1.93 14.44 -3.7 21.89 -1.49 c 2.34 0.69 4.6 1.79 6.74 2.98 c 2.14 1.2 3.59 3.14 4.27 5.56 c 0.04 0.18 0.09 0.37 0.13 0.55 C 396.9 436.81 396.81 437.28 396.72 437.74 z M 386.44 435.42 c 1.45 -0.13 2.59 -0.1 3.66 -0.35 c 1.95 -0.45 2.52 -2.16 1.15 -3.54 c -0.81 -0.81 -1.86 -1.56 -2.94 -1.88 c -2.2 -0.65 -4.48 -1.18 -6.75 -1.39 c -1.86 -0.16 -3.82 0.03 -5.65 0.43 c -1.61 0.36 -2.3 1.78 -2.11 3.29 c 0.19 1.44 1.3 2.3 3.05 2.43 c 1.9 0.14 3.79 0.31 5.69 0.51 C 383.94 435.07 385.35 435.28 386.44 435.42 z" stroke-linecap="round"/>
</g>
<g transform="matrix(8.1899 0 0 8.1899 263.1149 364.8545)" id="Layer_1">
<path class="primary" style="stroke: none; stroke-width: 1; stroke-dasharray: none; stroke-linecap: butt; stroke-dashoffset: 0; stroke-linejoin: miter; stroke-miterlimit: 4; is-custom-font: none; font-file-url: none; fill-rule: nonzero; opacity: 1;" transform=" translate(-332.9234, -444.1374)" d="M 336.51 447.76 c -2.14 0.15 -4.28 0.33 -6.42 0.42 c -0.5 0.02 -1.01 -0.31 -1.51 -0.47 c 0.18 -1.24 0.19 -2.54 0.57 -3.72 c 0.9 -2.84 3.69 -4.36 6.54 -3.77 c 1.07 0.22 1.72 0.71 1.55 1.93 C 336.98 444.02 336.75 445.89 336.51 447.76 z" stroke-linecap="round"/>
</g>

</svg>